<svg width="64" height="64" viewBox="0 0 64 64" fill="none" xmlns="http://www.w3.org/2000/svg">
<path d="M13.288 19.192C16.5104 19.192 19.1227 16.5797 19.1227 13.3573C19.1227 10.1349 16.5104 7.52264 13.288 7.52264C10.0656 7.52264 7.45337 10.1349 7.45337 13.3573C7.45337 16.5797 10.0656 19.192 13.288 19.192Z" fill="black"/>
<path d="M24.632 23.6134V55.984H34.6826V39.976C34.6826 35.752 35.4773 31.6614 40.7146 31.6614C45.88 31.6614 45.944 36.4907 45.944 40.2427V55.9867H56V38.2347C56 29.5147 54.1226 22.8134 43.9306 22.8134C39.0373 22.8134 35.7573 25.4987 34.416 28.04H34.28V23.6134H24.632V23.6134ZM8.2533 23.6134H18.32V55.984H8.2533V23.6134Z" fill="black"/>
</svg>
